<svg width="183" height="182" viewBox="0 0 183 182" fill="none" xmlns="http://www.w3.org/2000/svg">
<rect opacity="0.7" x="91.5" y="0.707107" width="127" height="127" rx="39.5" transform="rotate(45 91.5 0.707107)" fill="#F0FBFE" stroke="#8BCCE2"/>
<path d="M108.272 102.455H75.5443C74.6766 102.454 73.8447 102.109 73.2312 101.496C72.6176 100.882 72.2725 100.05 72.2715 99.1825V76.2728C72.2724 75.4051 72.6174 74.5731 73.231 73.9595C73.8446 73.346 74.6766 73.0009 75.5443 73H108.272C109.14 73.001 109.972 73.3461 110.586 73.9597C111.199 74.5732 111.544 75.4051 111.545 76.2728V99.1825C111.544 100.05 111.199 100.882 110.585 101.495C109.972 102.109 109.14 102.454 108.272 102.455ZM75.5443 76.2728V99.1825H108.272V76.2728H75.5443Z" fill="#7CC3DF"/>
<path d="M114.819 105.727H69V108.999H114.819V105.727Z" fill="#7CC3DF"/>
</svg>
