<svg width="183" height="182" viewBox="0 0 183 182" fill="none" xmlns="http://www.w3.org/2000/svg">
<rect x="91.5" y="0.746169" width="127" height="127" rx="39.5" transform="rotate(45 91.5 0.746169)" fill="#F4F3FA" stroke="#C0B7F3"/>
<path d="M97 88H109C109.795 87.9991 110.558 87.6827 111.12 87.1203C111.683 86.5579 111.999 85.7954 112 85V73C111.999 72.2046 111.683 71.4421 111.12 70.8797C110.558 70.3173 109.795 70.0009 109 70H97C96.2046 70.0009 95.4421 70.3173 94.8797 70.8797C94.3173 71.4421 94.0009 72.2046 94 73H80.5C79.7046 73.0009 78.9421 73.3173 78.3797 73.8797C77.8173 74.4421 77.5009 75.2046 77.5 76V82H73C72.2046 82.0009 71.4421 82.3173 70.8797 82.8797C70.3173 83.4421 70.0009 84.2046 70 85V97C70.0009 97.7954 70.3173 98.5579 70.8797 99.1203C71.4421 99.6827 72.2046 99.9991 73 100H76V106C76.0009 106.795 76.3173 107.558 76.8797 108.12C77.4421 108.683 78.2046 108.999 79 109H94C94.0009 109.795 94.3173 110.558 94.8797 111.12C95.4421 111.683 96.2046 111.999 97 112H109C109.795 111.999 110.558 111.683 111.12 111.12C111.683 110.558 111.999 109.795 112 109V97C111.999 96.2046 111.683 95.4421 111.12 94.8797C110.558 94.3173 109.795 94.0009 109 94H97C96.2046 94.0009 95.4421 94.3173 94.8797 94.8797C94.3173 95.4421 94.0009 96.2046 94 97V106H79V100H85C85.7954 99.9991 86.5579 99.6827 87.1203 99.1203C87.6827 98.5579 87.9991 97.7954 88 97V85C87.9991 84.2046 87.6827 83.4421 87.1203 82.8797C86.5579 82.3173 85.7954 82.0009 85 82H80.5V76H94V85C94.0009 85.7954 94.3173 86.5579 94.8797 87.1203C95.4421 87.6827 96.2046 87.9991 97 88ZM97 109V103H109V109H97ZM109 97V100H97V97H109ZM73 97V91H85V97H73ZM85.0007 88H73V85H85L85.0007 88ZM97 85V79H109V85H97ZM109 73V76H97V73H109Z" fill="#6A5DC8"/>
</svg>
