<svg width="183" height="182" viewBox="0 0 183 182" fill="none" xmlns="http://www.w3.org/2000/svg">
<rect x="91.5" y="0.726638" width="127" height="127" rx="39.5" transform="rotate(45 91.5 0.726638)" fill="#FEF8F5" stroke="#FAD0D9"/>
<path d="M77.5 85H73C72.2046 84.9991 71.4421 84.6827 70.8797 84.1203C70.3173 83.5579 70.0009 82.7954 70 82V76C70.0009 75.2046 70.3173 74.4421 70.8797 73.8797C71.4421 73.3173 72.2046 73.0009 73 73H77.5V76H73V82H77.5V85Z" fill="#FF8041"/>
<path d="M89.5 82H80.5V85H89.5V82Z" fill="#FF8041"/>
<path d="M101.5 82H92.5V85H101.5V82Z" fill="#FF8041"/>
<path d="M109 85H104.5V82H109V76H104.5V73H109C109.795 73.0009 110.558 73.3173 111.12 73.8797C111.683 74.4421 111.999 75.2046 112 76V82C111.999 82.7954 111.683 83.5579 111.12 84.1203C110.558 84.6827 109.795 84.9991 109 85Z" fill="#FF8041"/>
<path d="M101.5 73H92.5V76H101.5V73Z" fill="#FF8041"/>
<path d="M89.5 73H80.5V76H89.5V73Z" fill="#FF8041"/>
<path d="M109 109H73C72.2046 108.999 71.4421 108.683 70.8797 108.12C70.3173 107.558 70.0009 106.795 70 106V100C70.0009 99.2046 70.3173 98.4421 70.8797 97.8797C71.4421 97.3173 72.2046 97.0009 73 97H109C109.795 97.0009 110.558 97.3173 111.12 97.8797C111.683 98.4421 111.999 99.2046 112 100V106C111.999 106.795 111.683 107.558 111.12 108.12C110.558 108.683 109.795 108.999 109 109ZM73 100V106H109V100H73Z" fill="#FF8041"/>
<path d="M112 89.5H70V92.5H112V89.5Z" fill="#FF8041"/>
</svg>
