<svg width="24" height="24" viewBox="0 0 24 24" fill="none" xmlns="http://www.w3.org/2000/svg">
<path fill-rule="evenodd" clip-rule="evenodd" d="M7.05 21H3.3V8.925H7.05V21ZM5.175 7.35C3.97378 7.35 3 6.37622 3 5.175C3 3.97378 3.97378 3 5.175 3C6.37622 3 7.35 3.97378 7.35 5.175C7.35 5.75185 7.12085 6.30507 6.71296 6.71296C6.30507 7.12085 5.75185 7.35 5.175 7.35ZM21 21H17.25V15.15C17.25 13.725 17.25 12 15.3 12C13.35 12 13.05 13.5 13.05 15.075V21.075H9.3V8.925H12.9V10.65H12.975C13.6715 9.37048 15.046 8.61013 16.5 8.7C20.25 8.7 21 11.175 21 14.4V21Z" />
<mask id="mask0" mask-type="alpha" maskUnits="userSpaceOnUse" x="3" y="3" width="18" height="19">
<path fill-rule="evenodd" clip-rule="evenodd" d="M7.05 21H3.3V8.925H7.05V21ZM5.175 7.35C3.97378 7.35 3 6.37622 3 5.175C3 3.97378 3.97378 3 5.175 3C6.37622 3 7.35 3.97378 7.35 5.175C7.35 5.75185 7.12085 6.30507 6.71296 6.71296C6.30507 7.12085 5.75185 7.35 5.175 7.35ZM21 21H17.25V15.15C17.25 13.725 17.25 12 15.3 12C13.35 12 13.05 13.5 13.05 15.075V21.075H9.3V8.925H12.9V10.65H12.975C13.6715 9.37048 15.046 8.61013 16.5 8.7C20.25 8.7 21 11.175 21 14.4V21Z" fill="white"/>
</mask>
<g mask="url(#mask0)">
</g>
</svg>
