<svg width="24" height="24" viewBox="0 0 24 24" fill="none" xmlns="http://www.w3.org/2000/svg">
<path fill-rule="evenodd" clip-rule="evenodd" d="M22.4992 5.47501C21.725 5.85616 20.8848 6.08529 20.0242 6.15001C20.9387 5.62565 21.6117 4.76422 21.8992 3.75001C21.0665 4.25305 20.153 4.60829 19.1992 4.80001C17.994 3.5211 16.1315 3.10483 14.4965 3.74893C12.8615 4.39303 11.7834 5.96771 11.7742 7.72501C11.7742 8.10001 11.8492 8.40001 11.8492 8.70001C8.38535 8.55774 5.15486 6.91512 2.99922 4.20001C2.60882 4.88583 2.40214 5.66086 2.39922 6.45001C2.38507 7.90595 3.12201 9.26647 4.34922 10.05C3.6676 10.0266 3.00046 9.84697 2.39922 9.52501V9.60001C2.39665 11.645 3.84269 13.4054 5.84922 13.8C5.48004 13.8867 5.10323 13.937 4.72422 13.95C4.44709 13.9623 4.16958 13.9371 3.89922 13.875C4.47911 15.6307 6.1007 16.8319 7.94922 16.875C6.42731 18.066 4.55661 18.7247 2.62422 18.75C2.27255 18.7624 1.92056 18.7373 1.57422 18.675C3.54593 19.9352 5.83422 20.6113 8.17422 20.625C16.1242 20.625 20.3992 14.025 20.3992 8.40001V7.87501C21.1973 7.16644 21.9029 6.36008 22.4992 5.47501Z" />
<mask id="mask0" mask-type="alpha" maskUnits="userSpaceOnUse" x="1" y="3" width="22" height="18">
<path fill-rule="evenodd" clip-rule="evenodd" d="M22.4992 5.47501C21.725 5.85616 20.8848 6.08529 20.0242 6.15001C20.9387 5.62565 21.6117 4.76422 21.8992 3.75001C21.0665 4.25305 20.153 4.60829 19.1992 4.80001C17.994 3.5211 16.1315 3.10483 14.4965 3.74893C12.8615 4.39303 11.7834 5.96771 11.7742 7.72501C11.7742 8.10001 11.8492 8.40001 11.8492 8.70001C8.38535 8.55774 5.15486 6.91512 2.99922 4.20001C2.60882 4.88583 2.40214 5.66086 2.39922 6.45001C2.38507 7.90595 3.12201 9.26647 4.34922 10.05C3.6676 10.0266 3.00046 9.84697 2.39922 9.52501V9.60001C2.39665 11.645 3.84269 13.4054 5.84922 13.8C5.48004 13.8867 5.10323 13.937 4.72422 13.95C4.44709 13.9623 4.16958 13.9371 3.89922 13.875C4.47911 15.6307 6.1007 16.8319 7.94922 16.875C6.42731 18.066 4.55661 18.7247 2.62422 18.75C2.27255 18.7624 1.92056 18.7373 1.57422 18.675C3.54593 19.9352 5.83422 20.6113 8.17422 20.625C16.1242 20.625 20.3992 14.025 20.3992 8.40001V7.87501C21.1973 7.16644 21.9029 6.36008 22.4992 5.47501Z" fill="white"/>
</mask>
<g mask="url(#mask0)">
</g>
</svg>
