<svg width="16" height="16" fill="none" xmlns="http://www.w3.org/2000/svg"><g clip-path="url(#clip0)"><path d="M8.533 4.51L8.5 3l-1.062.54-.03.976C3.264 4.918 0 9.477 0 15.046c0 .358.013.713.04 1.063h1.45a14.708 14.708 0 01-.023-.775c0-5.05 2.593-9.196 5.901-9.64l-.295 9.486 1.682-.81-.196-8.675c3.301.454 5.886 4.595 5.886 9.64 0 .26-.01.517-.023.774h1.537c.027-.35.041-.705.041-1.064.003-5.596-3.296-10.173-7.467-10.535z" fill="#099A71"/></g><defs><clipPath id="clip0"><path fill="#fff" d="M0 0h16v16H0z"/></clipPath></defs></svg>