<svg width="20" height="20" fill="none" xmlns="http://www.w3.org/2000/svg"><path fill="#fff" d="M0 0h20v20H0z"/><path d="M7.29 15.258h5.404v-9.91H7.291v9.91z" fill="#E15D29"/><path d="M7.644 10.254a6.27 6.27 0 012.363-4.917A6.114 6.114 0 006.184 4C2.77 4 0 6.8 0 10.254c0 3.454 2.769 6.254 6.184 6.254 1.443 0 2.77-.5 3.823-1.337a6.27 6.27 0 01-2.363-4.917z" fill="#D2232C"/><path d="M20 10.254c0 3.454-2.768 6.254-6.185 6.254a6.112 6.112 0 01-3.822-1.337 6.268 6.268 0 002.362-4.917 6.268 6.268 0 00-2.362-4.917A6.115 6.115 0 0113.815 4C17.231 4 20 6.8 20 10.254z" fill="#EC972D"/></svg>