<svg width="20" height="20" fill="none" xmlns="http://www.w3.org/2000/svg"><path fill="#fff" d="M0 0h20v20H0z"/><path fill-rule="evenodd" clip-rule="evenodd" d="M7.272 13.667H8.95L10 7H8.322l-1.05 6.667zm5.63-3.96c-.58-.3-.938-.499-.933-.8 0-.27.3-.558.953-.558.546-.01.941.117 1.248.248l.15.075.226-1.4A4.082 4.082 0 0013.05 7c-1.646 0-2.807.878-2.817 2.13-.01.93.829 1.448 1.46 1.756.65.317.867.52.864.8-.004.433-.518.634-.997.634-.667 0-1.02-.1-1.568-.342l-.215-.101-.232 1.446c.387.18 1.108.336 1.854.344 1.752 0 2.891-.865 2.904-2.205.008-.737-.438-1.295-1.4-1.755zM18.669 7h-1.272c-.393 0-.689.12-.861.555l-2.444 6.112h1.729s.28-.76.344-.942c.19 0 1.868-.025 2.107-.025.052.232.201.967.201.967H20L18.668 7zm-1.85 4.286c.134-.473.653-1.782.653-1.782-.01.015.137-.35.219-.6l.11.522s.317 1.86.382 1.86h-1.364zM5.588 7L4.03 11.608l-.167-.891-.556-3.11C3.21 7.187 2.93 7 2.586 7H.022L0 7.2c.422.116.807.305 1.168.487.121.095.538.43.746 1.225l1.172 4.755h1.683L7.272 7H5.588z" fill="#192061"/></svg>